<?xml version="1.0" standalone="no"?>
<!DOCTYPE svg PUBLIC "-//W3C//DTD SVG 1.1//EN" "http://www.w3.org/Graphics/SVG/1.1/DTD/svg11.dtd"><svg xmlns="http://www.w3.org/2000/svg" style="background-color:#FFF" width="933" height="933"><path stroke="black" fill="none" stroke-width="1" d="M357.835, 78.198L364.978, 78.424L371.808, 79.297L378.304, 80.724L384.446, 82.616L390.213, 84.88L395.585, 87.426L400.543, 90.162L405.064, 92.998L409.13, 95.841L412.72, 98.602L415.813, 101.188L418.389, 103.508L420.428, 105.471L421.91, 106.986L425.871, 107.069L428.705, 106.329L431.483, 105.986L434.067, 105.936L436.318, 106.077L439.266, 106.518L441.483, 107.791L443.192, 109.163L446.359, 112.437L449.206, 116.334L451.753, 120.753L454.019, 125.591L456.021, 130.749L457.779, 136.125L459.313, 141.618L460.64, 147.127L461.779, 152.551L462.751, 157.789L463.572, 162.74L464.262, 167.302L464.841, 171.374L465.326, 174.856L465.737, 177.647L466.313, 180.13L467.239, 182.733L468.462, 185.418L469.929, 188.145L473.379, 193.571L477.162, 198.705L479.044, 201.064L480.849, 203.235L482.523, 205.178L484.013, 206.854L486.225, 209.252L504.803, 205.382L504.028, 210.011L502.895, 214.754L501.429, 219.593L499.655, 224.512L497.598, 229.493L495.283, 234.52L492.735, 239.575L489.979, 244.641L483.946, 254.739L477.383, 264.676L470.492, 274.316L463.473, 283.522L456.527, 292.157L453.145, 296.218L449.856, 300.085L446.686, 303.741L443.66, 307.168L440.803, 310.351L438.14, 313.27L435.697, 315.911L433.497, 318.255L431.567, 320.285L429.932, 321.984L427.646, 324.322L420.409, 351.183L418.604, 347.203L416.223, 344.026L414.407, 342.072L412.101, 339.994L409.319, 337.987L406.075, 336.244L402.381, 334.96L400.526, 330.55L326.784, 234.14L326.784, 240.906L376.846, 324.121L384.63, 339.672L385.508, 342.066L386.422, 344.329L424.468, 399.551L427.506, 402.019L428.839, 403.781L430.054, 405.859L431.157, 408.227L432.153, 410.859L433.046, 413.729L433.842, 416.809L435.164, 423.496L436.157, 430.709L436.863, 438.238L437.323, 445.871L437.577, 453.398L437.665, 460.606L437.629, 467.284L437.576, 470.359L437.508, 473.222L437.428, 475.847L437.343, 478.208L437.257, 480.278L437.103, 483.44L430.832, 476.12L424.667, 467.491L418.51, 459.438L412.375, 451.941L406.275, 444.979L400.223, 438.533L394.233, 432.583L388.316, 427.109L382.486, 422.092L376.757, 417.511L371.142, 413.347L365.653, 409.58L360.304, 406.189L355.108, 403.156L350.078, 400.461L345.227, 398.082L340.568, 396.002L336.115, 394.2L331.881, 392.655L327.878, 391.349L324.12, 390.262L320.62, 389.373L317.391, 388.662L314.446, 388.111L311.798, 387.699L309.461, 387.406L307.447, 387.212L304.443, 387.044L299.056, 386.553L295.143, 386.341L290.977, 386.391L286.586, 386.684L281.995, 387.203L277.229, 387.932L272.315, 388.852L267.278, 389.948L256.937, 392.595L246.415, 395.734L235.916, 399.228L225.647, 402.94L215.815, 406.73L206.624, 410.463L202.334, 412.264L198.282, 413.999L194.494, 415.65L190.995, 417.201L187.811, 418.634L184.968, 419.931L182.491, 421.076L180.408, 422.052L177.52, 423.426L177.916, 421.137L179.538, 417.931L180.54, 415.951L181.655, 413.75L182.871, 411.348L184.178, 408.769L187.019, 403.167L190.089, 397.119L193.299, 390.804L199.785, 378.076L202.884, 372.017L205.767, 366.398L207.101, 363.808L208.348, 361.395L209.497, 359.179L210.536, 357.185L212.244, 353.945L213.382, 351.852L215.067, 349.312L216.771, 347.458L218.42, 346.184L221.25, 344.944L239.429, 315.656L239.923, 313.397L240.623, 311.428L242.506, 308.278L244.816, 306.048L247.294, 304.579L249.676, 303.711L251.701, 303.288L255.915, 299.724L257.711, 296.346L259.069, 293.03L260.036, 289.803L260.659, 286.688L260.983, 283.712L261.056, 280.9L260.924, 278.277L260.634, 275.868L260.231, 273.699L259.276, 270.178L256.546, 266.862L254.177, 263.98L249.936, 257.963L246.318, 251.693L243.275, 245.269L240.756, 238.789L238.713, 232.353L237.097, 226.06L235.859, 220.009L234.95, 214.299L234.321, 209.029L233.923, 204.298L233.708, 200.205L233.625, 196.849L233.627, 194.33L233.687, 192.195L233.942, 181.166L234.868, 170.773L236.42, 160.996L238.554, 151.817L241.226, 143.218L244.391, 135.179L248.004, 127.681L252.021, 120.707L256.397, 114.237L261.088, 108.253L266.049, 102.736L271.236, 97.667L276.604, 93.027L282.109, 88.799L287.705, 84.963L293.35, 81.5L298.997, 78.392L304.602, 75.62L310.122, 73.165L315.511, 71.009L320.725, 69.133L325.719, 67.518L330.448, 66.146L334.87, 64.998L338.937, 64.054L342.607, 63.298L345.835, 62.709L348.575, 62.269L350.784, 61.959L353.43, 61.656ZM259.074, 269.606L258.164, 267.324Z"/><path stroke="black" fill="none" stroke-width="1" d="M432.258, 237.176L393.679, 284.867L385.57, 277.43L416.691, 235.485L419.058, 235.485Z"/><path stroke="black" fill="none" stroke-width="1" d="M409.246, 296.039L400.113, 289.262L440.703, 238.184L453.226, 238.184Z"/><path stroke="black" fill="none" stroke-width="1" d="M479.128, 235.688L477.19, 238.604L474.791, 242.189L473.31, 244.394L471.661, 246.839L469.863, 249.496L467.931, 252.338L463.731, 258.475L459.193, 265.035L454.448, 271.804L449.628, 278.57L444.864, 285.118L440.288, 291.235L438.11, 294.065L436.029, 296.707L434.061, 299.135L432.221, 301.321L430.526, 303.24L428.993, 304.864L426.478, 307.12L422.567, 307.487L420.666, 306.673L417.828, 304.362L416.195, 302.117L416.949, 299.641L419.056, 297.209L420.428, 295.62L421.986, 293.809L423.71, 291.799L425.582, 289.61L427.582, 287.263L431.886, 282.179L436.466, 276.715L441.167, 271.04L445.832, 265.322L450.305, 259.727L454.431, 254.426L456.314, 251.937L458.052, 249.585L459.625, 247.389L461.014, 245.372L462.199, 243.554L463.878, 240.6L464.507, 238.693Z"/><path stroke="black" fill="none" stroke-width="1" d="M452.407, 192.511L458.849, 210.167L405.947, 198.733L400.119, 178.366Z"/><path stroke="black" fill="none" stroke-width="1" d="M409.247, 235.144L378.802, 273.48L371.013, 264.577L397.403, 231.761Z"/></svg>
