<?xml version="1.0" standalone="no"?>
<!DOCTYPE svg PUBLIC "-//W3C//DTD SVG 20010904//EN"
 "http://www.w3.org/TR/2001/REC-SVG-20010904/DTD/svg10.dtd">
<svg version="1.0" xmlns="http://www.w3.org/2000/svg"
 width="364.000000pt" height="500.000000pt" viewBox="0 0 364.000000 500.000000"
 preserveAspectRatio="xMidYMid meet">

<g transform="translate(0.000000,500.000000) scale(0.100000,-0.100000)"
fill="#000000" stroke="none">
<path d="M0 2500 l0 -2500 1820 0 1820 0 0 2500 0 2500 -1820 0 -1820 0 0
-2500z m1982 2288 c4 -71 5 -112 7 -140 2 -52 17 -28 31 50 8 42 15 70 17 62
2 -8 -3 -44 -10 -80 -14 -63 -13 -66 9 -93 13 -16 24 -34 24 -40 0 -6 -7 -2
-15 9 -8 10 -15 15 -15 10 0 -5 -7 -3 -15 4 -19 16 -34 5 -28 -20 3 -11 0 -20
-6 -20 -8 0 -11 45 -11 144 l0 145 -32 4 c-32 4 -32 4 5 5 37 2 37 2 39 -40z
m218 26 c0 -3 -23 -60 -51 -127 -28 -66 -53 -136 -55 -156 -2 -20 -4 -43 -5
-51 -1 -8 -8 -40 -16 -70 -8 -30 -15 -68 -15 -85 1 -16 -2 -24 -4 -17 -10 22
-24 13 -23 -15 0 -16 3 -22 6 -15 6 16 23 6 23 -14 0 -8 -4 -13 -9 -9 -5 3
-12 1 -16 -5 -3 -5 -1 -10 5 -10 6 0 8 -11 5 -27 -6 -27 -6 -28 10 -8 17 19
17 18 11 -24 -5 -35 -4 -42 8 -38 9 4 15 -2 18 -17 6 -29 -9 -69 -21 -61 -6 3
-8 12 -5 19 3 8 1 17 -5 20 -6 4 -8 13 -5 20 3 8 1 17 -5 21 -16 9 -14 -47 4
-86 8 -19 14 -27 15 -20 0 12 3 12 12 3 10 -10 7 -18 -13 -37 l-25 -25 -2 32
c-1 18 -8 49 -14 68 -7 19 -12 87 -12 150 1 92 5 128 22 177 17 48 20 68 12
88 -13 34 -13 35 3 35 8 0 30 40 52 93 20 50 47 116 59 144 11 29 24 53 29 53
4 0 7 -3 7 -6z m-444 -91 c7 -38 13 -81 13 -98 -1 -27 -37 129 -38 164 -2 35
13 -5 25 -66z m385 40 c-8 -15 -10 -15 -11 -2 0 17 10 32 18 25 2 -3 -1 -13
-7 -23z m-26 -62 c-19 -38 -28 -41 -14 -5 13 35 20 46 26 41 2 -3 -3 -19 -12
-36z m-562 -72 c9 -13 17 -28 17 -33 0 -13 -8 -4 -54 64 -29 42 -31 48 -10 24
16 -18 37 -42 47 -55z m404 51 c-1 -12 -5 -16 -10 -11 -5 5 -6 14 -3 20 11 16
15 13 13 -9z m-49 -31 c3 -18 -34 -33 -44 -18 -3 5 0 9 7 9 18 0 -1 17 -26 23
-11 3 -2 5 20 4 28 -1 41 -7 43 -18z m-218 -26 c0 -5 -13 -17 -28 -27 l-27
-19 24 26 c26 28 31 32 31 20z m-157 -42 c26 -39 65 -124 49 -106 -11 13 -83
145 -78 145 2 0 15 -17 29 -39z m424 17 c-3 -8 -6 -5 -6 6 -1 11 2 17 5 13 3
-3 4 -12 1 -19z m-180 -40 c-3 -7 -5 -2 -5 12 0 14 2 19 5 13 2 -7 2 -19 0
-25z m-183 -3 c9 -14 13 -25 8 -25 -5 0 -14 11 -20 25 -6 14 -10 25 -8 25 2 0
11 -11 20 -25z m346 -6 c-7 -11 -14 -19 -16 -16 -7 7 7 37 17 37 6 0 5 -9 -1
-21z m30 -70 c-51 -21 -160 -46 -160 -38 0 5 3 9 8 9 4 0 39 9 77 20 75 20
116 25 75 9z m-375 -49 c-4 -12 -9 -19 -12 -17 -3 3 -2 15 2 27 4 12 9 19 12
17 3 -3 2 -15 -2 -27z m-5 -55 c0 -14 -4 -25 -9 -25 -4 0 -6 11 -3 25 2 14 6
25 8 25 2 0 4 -11 4 -25z m-39 -148 l-24 -22 19 27 c10 14 21 24 23 22 3 -3
-6 -15 -18 -27z m-155 -187 l1 -145 -10 142 -10 142 -46 4 c-40 4 -39 4 9 3
l55 -1 1 -145z m852 35 c2 -59 -1 -102 -8 -109 -7 -7 -10 20 -10 86 0 53 -3
104 -7 114 -4 12 -2 15 8 12 10 -3 15 -29 17 -103z m-38 91 c0 -2 -7 -6 -15
-10 -8 -3 -15 -1 -15 4 0 6 7 10 15 10 8 0 15 -2 15 -4z m242 -32 c-6 -45 -17
-48 -17 -3 0 21 4 37 10 36 6 -2 8 -17 7 -33z m-592 -60 c22 -8 27 -13 15 -13
-11 0 -36 9 -55 20 -35 20 -28 19 40 -7z m-320 4 c0 -7 -12 -26 -26 -43 l-25
-30 23 42 c25 46 28 50 28 31z m877 -100 c-2 -13 -4 -3 -4 22 0 25 2 35 4 23
2 -13 2 -33 0 -45z m-230 20 c-3 -8 -6 -5 -6 6 -1 11 2 17 5 13 3 -3 4 -12 1
-19z m-61 -18 c21 0 33 -4 29 -10 -4 -6 -11 -8 -16 -5 -5 3 -6 -1 -3 -9 3 -9
1 -16 -5 -16 -6 0 -11 7 -11 15 0 8 -5 15 -10 15 -7 0 -8 -6 -2 -17 6 -10 6
-29 1 -47 -6 -20 -5 -34 3 -41 8 -7 9 -5 5 8 -4 9 -2 17 3 17 6 0 10 -5 10
-11 0 -5 4 -8 9 -4 5 3 13 -4 16 -15 11 -33 14 -141 5 -135 -5 3 -13 -2 -18
-11 -6 -11 -11 -13 -16 -5 -9 14 2 33 15 26 5 -4 9 -1 9 5 0 7 -9 14 -20 17
-11 3 -17 10 -13 16 4 7 8 19 8 29 1 13 -2 15 -15 8 -18 -9 -30 -4 -30 12 0 5
4 7 9 3 10 -5 -1 44 -13 64 -3 5 1 11 9 15 19 7 19 22 1 29 -11 4 -13 1 -10
-11 5 -14 3 -14 -6 1 -9 14 -9 22 -1 30 6 6 11 20 12 32 0 11 3 14 6 8 2 -7
20 -13 39 -13z m176 -53 c21 -9 48 -33 62 -53 l25 -37 3 39 c2 22 7 -9 12 -67
6 -86 5 -112 -7 -135 -11 -22 -13 -42 -7 -79 5 -28 4 -54 -1 -59 -5 -6 -10 6
-10 30 -1 21 -4 29 -6 17 -3 -14 -9 -20 -19 -16 -8 3 -14 -1 -14 -10 0 -17
-26 -47 -40 -47 -5 0 -7 7 -4 15 3 8 -7 40 -22 72 -15 32 -28 63 -29 68 0 6
-7 21 -14 34 -9 17 -15 20 -21 12 -5 -10 -9 -9 -13 2 -4 11 1 14 21 12 33 -4
46 3 33 18 -11 14 -3 69 9 62 5 -3 8 8 8 25 -1 20 -10 38 -24 49 -17 14 -20
21 -11 30 6 6 7 11 3 11 -5 0 -3 7 4 15 7 9 16 14 19 12 3 -2 23 -11 43 -20z
m105 1 c-3 -8 -6 -5 -6 6 -1 11 2 17 5 13 3 -3 4 -12 1 -19z m-645 -23 c58
-54 94 -115 67 -115 -5 0 -8 4 -4 9 3 5 -3 12 -14 16 -11 3 -25 21 -31 40 -7
21 -18 35 -27 35 -9 0 -13 3 -10 7 4 3 -1 12 -11 19 -9 7 -12 14 -7 14 6 0 22
-11 37 -25z m161 -56 c-5 -5 -6 11 -3 34 4 41 5 41 8 8 2 -18 0 -37 -5 -42z
m87 49 c0 -19 -2 -20 -10 -8 -13 19 -13 30 0 30 6 0 10 -10 10 -22z m-107 -8
c-3 -12 -8 -19 -11 -16 -5 6 5 36 12 36 2 0 2 -9 -1 -20z m44 -32 c-3 -8 -6
-5 -6 6 -1 11 2 17 5 13 3 -3 4 -12 1 -19z m3 -48 c13 -9 13 -10 0 -9 -8 0
-24 4 -35 9 l-20 9 20 0 c11 0 27 -4 35 -9z m-86 -82 c3 -16 2 -28 -3 -28 -5
0 -11 16 -13 35 -5 39 6 34 16 -7z m243 -10 c-3 -8 -6 -5 -6 6 -1 11 2 17 5
13 3 -3 4 -12 1 -19z m-47 -23 c0 -8 -4 -15 -10 -15 -5 0 -7 7 -4 15 4 8 8 15
10 15 2 0 4 -7 4 -15z m-186 -21 c5 -14 4 -15 -9 -4 -17 14 -19 20 -6 20 5 0
12 -7 15 -16z m216 0 c0 -4 -8 -13 -17 -21 -17 -14 -17 -14 2 -8 15 5 17 3 9
-5 -6 -6 -27 -10 -45 -8 -34 4 -34 4 -9 15 14 7 21 12 15 13 -14 1 17 20 33
20 6 0 12 -3 12 -6z m80 -14 c0 -5 -6 -9 -12 -7 -7 1 -12 -5 -10 -13 3 -12 1
-13 -10 -2 -11 11 -10 14 2 22 19 13 30 12 30 0z m105 -85 l18 -46 -34 -47
c-18 -26 -25 -40 -14 -32 17 14 18 13 11 -10 -4 -14 -8 -30 -10 -37 -1 -7 -10
-20 -19 -31 -9 -10 -16 -21 -15 -23 2 -2 -5 4 -15 14 -18 18 -19 18 -33 0 -13
-17 -13 -17 -14 2 0 11 4 25 8 31 8 12 43 28 55 26 18 -4 4 31 -26 65 -41 47
-105 142 -83 124 11 -9 16 -10 16 -2 0 6 5 11 11 11 8 0 7 -6 -2 -17 -12 -15
-12 -16 4 -10 10 4 16 3 13 -2 -3 -5 6 -11 19 -14 27 -5 44 8 23 16 -9 4 -4
14 14 30 14 14 23 29 20 34 -4 5 3 -1 14 -13 12 -13 30 -43 39 -69z m-85 65
c0 -5 -5 -10 -11 -10 -5 0 -7 5 -4 10 3 6 8 10 11 10 2 0 4 -4 4 -10z m-295
-61 c13 -27 19 -49 14 -49 -6 0 -17 17 -25 38 -9 20 -25 45 -37 54 l-22 17 23
-6 c15 -4 31 -23 47 -54z m210 -10 c4 -12 27 -41 51 -64 24 -24 44 -49 44 -56
0 -7 -6 -4 -14 6 -13 18 -14 17 -9 -10 l5 -30 -22 25 c-12 14 -19 20 -16 13 4
-6 -7 -21 -24 -33 -27 -19 -29 -19 -23 -3 3 10 10 24 16 31 5 6 6 12 2 12 -4
0 -2 7 5 15 11 13 10 14 -4 9 -11 -4 -16 -1 -16 10 0 9 3 15 8 15 22 -4 23 3
5 24 -23 26 -36 57 -23 57 5 0 12 -9 15 -21z m278 -122 c5 -29 9 -63 8 -77 0
-14 4 -51 10 -82 10 -49 15 -58 33 -58 23 0 46 -17 46 -34 0 -6 -5 -5 -12 2
-20 20 -60 14 -126 -19 -35 -16 -71 -28 -80 -26 -15 3 -14 5 3 12 11 4 35 14
53 21 18 8 31 17 28 22 -2 4 7 8 21 8 15 -1 28 5 31 13 3 9 -1 11 -17 6 -12
-4 -21 -2 -21 4 0 6 10 11 21 11 20 0 21 1 5 24 -10 16 -14 35 -10 55 4 20 2
31 -4 31 -6 0 -9 -6 -6 -14 3 -7 -2 -16 -11 -20 -10 -3 -14 -2 -10 5 4 5 2 16
-4 23 -9 10 -8 15 5 20 9 3 21 3 27 0 7 -3 3 2 -7 10 -11 9 -16 19 -13 23 4 3
1 16 -6 27 -20 31 -26 61 -15 80 8 15 10 15 25 0 9 -9 21 -39 26 -67z m-463
49 c0 -8 -4 -18 -10 -21 -6 -4 -7 1 -3 11 5 13 3 15 -7 9 -9 -5 -11 -4 -6 3
10 17 26 15 26 -2z m-734 -20 c0 -15 -5 -21 -10 -16 -5 5 -6 16 -3 24 9 23 15
19 13 -8z m697 -47 c-3 -10 -9 -16 -14 -14 -4 3 -5 13 -2 22 5 12 3 14 -7 8
-8 -5 -11 -4 -6 3 11 18 34 3 29 -19z m52 -19 c-7 -11 -45 0 -45 12 0 6 7 8
15 4 8 -3 15 -1 15 4 0 6 -4 10 -10 10 -5 0 -10 6 -10 13 1 6 9 1 20 -12 11
-12 18 -27 15 -31z m109 21 c-2 -3 -12 3 -22 13 -16 17 -16 18 5 5 12 -7 20
-15 17 -18z m-87 -45 c-4 -9 -12 -16 -19 -16 -10 0 -10 2 1 9 9 6 12 18 8 37
-6 26 -5 27 5 7 6 -12 8 -29 5 -37z m-487 4 c0 -15 -5 -12 -26 11 -19 22 -19
22 4 10 12 -6 22 -16 22 -21z m593 12 c18 -10 38 -38 53 -72 13 -30 23 -49 24
-42 0 6 7 12 15 12 8 0 15 5 15 11 0 6 6 9 14 6 7 -3 19 0 25 6 6 6 4 -11 -5
-37 -13 -38 -14 -53 -5 -67 6 -10 11 -25 11 -33 0 -8 16 -27 35 -42 34 -25 50
-74 24 -74 -5 0 -7 5 -3 12 5 8 2 9 -10 5 -9 -4 -15 -3 -12 2 3 5 -2 12 -11
15 -9 4 -20 1 -24 -6 -4 -7 -9 14 -11 47 -2 33 -6 58 -9 55 -3 -3 -12 0 -20 7
-12 9 -14 3 -12 -40 l2 -52 -9 50 c-5 27 -14 51 -20 53 -5 2 -8 8 -4 13 8 13
-26 101 -45 117 -12 10 -13 12 0 13 10 0 10 2 1 6 -6 2 -10 8 -7 13 9 14 -35
22 -51 9 -13 -10 -12 -14 2 -30 19 -21 16 -23 -19 -10 -19 8 -28 5 -42 -12
-14 -16 -20 -18 -23 -7 -3 7 6 22 19 33 14 11 25 15 27 8 5 -15 23 -14 20 1
-2 7 -10 19 -18 25 -13 11 -13 12 1 7 10 -3 20 -1 24 5 9 15 15 14 48 -7z
m-889 -38 c5 -14 4 -15 -9 -4 -17 14 -19 20 -6 20 5 0 12 -7 15 -16z m746 -4
c0 -5 -2 -10 -4 -10 -3 0 -8 5 -11 10 -3 6 -1 10 4 10 6 0 11 -4 11 -10z m157
-26 c-3 -3 -12 -4 -19 -1 -8 3 -5 6 6 6 11 1 17 -2 13 -5z m-37 -34 c0 -5 -7
-10 -16 -10 -8 0 -12 5 -9 10 3 6 10 10 16 10 5 0 9 -4 9 -10z m46 -12 c11
-18 12 -48 2 -54 -7 -5 -12 18 -9 39 0 4 -3 7 -9 7 -5 0 -10 5 -10 10 0 14 17
12 26 -2z m-824 -43 c-6 -34 -12 -32 -12 6 0 16 4 28 9 25 4 -3 6 -17 3 -31z
m145 13 c-3 -8 -6 -5 -6 6 -1 11 2 17 5 13 3 -3 4 -12 1 -19z m580 -4 c-3 -3
-12 -4 -19 -1 -8 3 -5 6 6 6 11 1 17 -2 13 -5z m-619 -57 c6 -5 12 -15 12 -21
0 -6 -5 -3 -11 7 -5 9 -16 17 -24 17 -8 0 -17 4 -20 10 -7 11 23 2 43 -13z
m1062 -17 c-8 -5 -8 -10 -2 -14 5 -3 13 2 17 12 7 16 8 15 15 -3 5 -11 9 -29
9 -40 0 -20 0 -20 -14 -1 -19 25 -19 19 -1 -32 8 -22 24 -50 36 -62 36 -36 53
-114 32 -147 -5 -7 -8 12 -8 42 1 39 -3 58 -14 65 -8 5 -16 14 -16 20 -3 23
-5 24 -14 10 -8 -12 -10 -11 -10 6 0 12 -7 25 -16 28 -15 6 -15 4 -3 -11 9
-11 10 -14 2 -9 -7 4 -18 16 -23 26 -8 16 -8 18 5 14 10 -4 15 0 15 10 0 9 -8
16 -17 17 -10 0 -13 3 -6 5 8 4 8 12 -2 31 -10 20 -11 28 -2 38 7 7 16 11 21
8 4 -3 3 -9 -4 -13z m-1210 -41 c0 -6 -4 -7 -10 -4 -5 3 -10 11 -10 16 0 6 5
7 10 4 6 -3 10 -11 10 -16z m184 -5 c5 -14 4 -15 -9 -4 -17 14 -19 20 -6 20 5
0 12 -7 15 -16z m-134 -24 c0 -5 -10 -10 -22 -10 -19 0 -20 2 -8 10 19 13 30
13 30 0z m12 -42 c-6 -6 -7 0 -4 19 5 21 7 23 10 9 2 -10 0 -22 -6 -28z m-232
-23 c13 -14 21 -25 18 -25 -2 0 -15 11 -28 25 -13 14 -21 25 -18 25 2 0 15
-11 28 -25z m437 -43 c-3 -15 -5 -15 -11 3 -4 11 -12 28 -17 37 -16 30 -10 32
12 4 11 -14 19 -34 16 -44z m963 16 c0 -6 -6 -5 -15 2 -8 7 -15 14 -15 16 0 2
7 1 15 -2 8 -4 15 -11 15 -16z m49 -52 c-2 -2 -13 8 -23 22 l-19 27 24 -22
c12 -12 21 -24 18 -27z m-1412 -28 c-3 -8 -6 -5 -6 6 -1 11 2 17 5 13 3 -3 4
-12 1 -19z m423 -3 c0 -8 -2 -15 -4 -15 -2 0 -6 7 -10 15 -3 8 -1 15 4 15 6 0
10 -7 10 -15z m729 -20 c-8 -26 -6 -42 6 -67 14 -29 14 -31 0 -14 -8 11 -15
25 -15 30 -1 6 -9 0 -20 -13 -15 -18 -19 -33 -15 -65 l5 -41 -13 40 c-11 36
-11 42 5 59 10 11 18 23 18 27 0 10 30 79 34 79 3 0 0 -16 -5 -35z m-466 10
c-3 -9 -8 -14 -10 -11 -3 3 -2 9 2 15 9 16 15 13 8 -4z m390 -60 c-9 -48 -19
-61 -25 -32 -3 15 -1 24 3 21 5 -3 9 12 9 33 0 27 3 34 9 23 6 -8 7 -28 4 -45z
m294 48 c-4 -3 -1 -13 6 -22 11 -14 10 -14 -5 -2 -16 12 -16 31 -1 31 4 0 3
-3 0 -7z m-953 -52 c-4 -23 -9 -40 -11 -37 -3 3 -2 23 2 46 4 23 9 39 11 37 3
-2 2 -23 -2 -46z m574 -22 l-1 -51 -23 29 c-13 15 -23 32 -24 37 0 6 6 1 14
-10 14 -18 15 -18 21 8 4 15 4 32 -1 39 -4 8 -3 9 4 5 7 -4 11 -29 10 -57z
m396 18 c3 4 6 -14 6 -40 0 -45 -11 -64 -30 -52 -7 4 -7 13 0 26 9 16 7 21
-14 31 -23 10 -24 12 -9 23 10 8 14 19 10 31 -6 16 -4 16 12 -3 10 -12 21 -19
25 -16z m-673 -20 c-10 -9 -11 -8 -5 6 3 10 9 15 12 12 3 -3 0 -11 -7 -18z
m-652 -75 c1 -7 -3 -10 -9 -7 -5 3 -10 18 -9 33 0 24 1 25 9 7 5 -11 9 -26 9
-33z m980 29 c-8 -3 -14 -12 -14 -20 0 -8 -6 -16 -13 -19 -8 -2 -10 2 -5 15
10 29 24 43 36 36 7 -4 6 -8 -4 -12z m166 -43 c4 -7 -3 -2 -14 11 -12 13 -21
31 -21 40 0 14 6 6 35 -51z m-125 -42 c-5 -15 -14 -25 -19 -22 -5 3 -1 21 8
39 18 39 27 25 11 -17z m73 33 c3 -12 3 -18 0 -15 -3 3 -12 -2 -19 -12 -11
-14 -11 -12 -2 16 7 17 13 32 14 32 1 0 4 -9 7 -21z m-173 -29 c0 -16 -7 -30
-16 -34 -23 -9 -27 -8 -20 9 3 10 -1 15 -12 16 -10 0 -12 3 -4 6 6 2 12 9 12
15 0 6 -7 8 -15 5 -8 -4 -16 -3 -19 1 -2 4 13 8 35 9 37 2 39 0 39 -27z m405
20 c3 -5 2 -10 -4 -10 -5 0 -13 5 -16 10 -3 6 -2 10 4 10 5 0 13 -4 16 -10z
m-1317 -25 c-3 -3 -9 2 -12 12 -6 14 -5 15 5 6 7 -7 10 -15 7 -18z m1162 -15
c5 -19 6 -29 1 -24 -10 10 -26 72 -17 63 4 -4 11 -21 16 -39z m255 -12 c27
-12 31 -28 14 -60 -9 -17 -6 -25 17 -49 22 -23 25 -32 15 -42 -10 -9 -11 -9
-6 4 4 11 -1 22 -12 30 -29 21 -34 35 -23 65 14 35 3 46 -52 55 -38 6 -39 7
-11 8 18 0 44 -4 58 -11z m-1474 -95 c13 -16 12 -17 -3 -4 -10 7 -18 15 -18
17 0 8 8 3 21 -13z m1175 -42 c-1 -42 -4 -57 -13 -54 -8 3 -11 14 -6 32 6 24
5 25 -13 11 -15 -12 -14 -9 4 14 12 16 22 35 22 42 0 8 2 14 4 14 2 0 3 -26 2
-59z m58 20 c-9 -10 -26 18 -18 30 5 9 9 8 14 -7 4 -10 6 -21 4 -23z m-1187
-83 c-3 -7 -5 -2 -5 12 0 14 2 19 5 13 2 -7 2 -19 0 -25z m1133 -29 c0 -13 -5
-17 -17 -12 -11 4 -13 8 -5 11 10 3 10 7 1 18 -10 12 -9 13 5 8 9 -3 16 -15
16 -25z m89 -23 c-1 -17 -2 -16 -9 6 -4 14 -11 32 -15 40 -3 7 1 4 9 -6 9 -11
16 -29 15 -40z m210 -31 c0 -5 -4 -3 -9 5 -5 8 -9 22 -9 30 0 16 17 -16 18
-35z m-277 -7 c-5 -5 -7 -29 -4 -54 3 -29 1 -44 -7 -44 -6 0 -11 7 -11 16 0 9
-5 12 -12 8 -7 -5 -9 -2 -5 9 4 12 2 14 -11 10 -10 -4 -4 8 16 30 17 21 32 43
33 50 0 8 2 8 6 -1 3 -8 1 -18 -5 -24z m123 -4 c8 -20 15 -39 15 -42 0 -12
-27 33 -34 56 -12 35 2 26 19 -14z m172 -16 c-3 -7 -5 -2 -5 12 0 14 2 19 5
13 2 -7 2 -19 0 -25z m-1417 -43 c0 -5 -5 -3 -10 5 -5 8 -10 20 -10 25 0 6 5
3 10 -5 5 -8 10 -19 10 -25z m1395 -7 l-5 -43 14 40 c11 31 15 34 15 16 1 -25
-18 -101 -28 -113 -3 -4 -6 21 -5 55 0 71 2 87 9 87 3 0 3 -19 0 -42z m-1394
-25 c13 -16 12 -17 -3 -4 -10 7 -18 15 -18 17 0 8 8 3 21 -13z m1276 -35 c-3
-7 -5 -2 -5 12 0 14 2 19 5 13 2 -7 2 -19 0 -25z m-145 -43 c-6 -34 -13 -32
-10 4 1 16 5 28 9 26 3 -3 4 -16 1 -30z m145 -17 c-3 -7 -5 -2 -5 12 0 14 2
19 5 13 2 -7 2 -19 0 -25z m-167 2 c0 -5 -5 -10 -11 -10 -5 0 -7 5 -4 10 3 6
8 10 11 10 2 0 4 -4 4 -10z m273 -20 c-3 -11 -10 -23 -16 -27 -5 -3 -8 -2 -5
3 3 5 8 17 11 27 9 24 16 22 10 -3z m-254 -113 c1 -10 -3 -15 -9 -12 -5 3 -10
2 -10 -3 0 -6 -8 -13 -17 -16 -16 -6 -16 -6 0 12 9 10 17 32 18 48 0 25 2 26
9 9 5 -11 9 -28 9 -38z m-924 -117 c3 -6 -1 -7 -9 -4 -18 7 -21 14 -7 14 6 0
13 -4 16 -10z m912 -37 c-3 -10 -5 -4 -5 12 0 17 2 24 5 18 2 -7 2 -21 0 -30z
m-17 5 c0 -16 -3 -19 -11 -11 -6 6 -8 16 -5 22 11 17 16 13 16 -11z m3 -57
c-3 -14 -10 -35 -14 -46 l-8 -20 -1 20 c0 15 -4 12 -17 -13 -8 -18 -18 -31
-20 -28 -3 2 2 17 10 33 8 15 17 40 20 54 4 14 13 26 22 26 11 0 13 -7 8 -26z
m78 -73 c-5 -14 -16 -28 -25 -31 -12 -5 -10 2 7 28 25 38 32 39 18 3z m-134
-67 c7 -11 23 -21 35 -24 21 -4 21 -4 2 -6 -11 0 -31 10 -44 24 -13 14 -19 25
-14 25 5 0 15 -9 21 -19z m-902 -68 c10 -40 10 -53 -2 -76 -8 -16 -17 -26 -20
-23 -3 3 0 12 7 21 12 15 10 58 -6 115 -4 14 -3 22 1 18 4 -4 14 -29 20 -55z
m356 33 c-14 -17 -119 -52 -128 -43 -3 4 3 9 13 13 10 3 39 14 64 24 56 23 66
24 51 6z m624 -128 c12 -25 12 -28 -2 -28 -9 0 -13 3 -10 7 4 3 3 11 -2 17 -4
6 -11 27 -14 46 -5 31 -5 32 4 10 6 -14 17 -37 24 -52z m-630 -139 c-3 -12 -7
-24 -11 -28 -4 -3 -4 2 0 13 5 14 3 17 -11 12 -9 -4 -20 -1 -25 6 -13 21 -9
31 7 18 9 -7 18 -10 22 -6 3 3 1 6 -5 6 -7 0 -12 5 -12 10 0 7 6 7 19 0 13 -6
18 -18 16 -31z m-158 -5 c-3 -3 -12 -4 -19 -1 -8 3 -5 6 6 6 11 1 17 -2 13 -5z
m28 -14 c3 -5 1 -10 -4 -10 -6 0 -11 5 -11 10 0 6 2 10 4 10 3 0 8 -4 11 -10z
m322 -102 c-3 -8 -6 -5 -6 6 -1 11 2 17 5 13 3 -3 4 -12 1 -19z m320 -30 c-3
-8 -6 -5 -6 6 -1 11 2 17 5 13 3 -3 4 -12 1 -19z m-940 -90 c-3 -7 -5 -2 -5
12 0 14 2 19 5 13 2 -7 2 -19 0 -25z m991 -369 c-3 -8 -7 -3 -11 10 -4 17 -3
21 5 13 5 -5 8 -16 6 -23z m-7 -46 c13 -16 12 -17 -3 -4 -17 13 -22 21 -14 21
2 0 10 -8 17 -17z m49 -63 c0 -10 -3 -21 -7 -23 -5 -3 -8 8 -8 23 0 15 3 26 8
23 4 -2 7 -13 7 -23z m20 -81 c0 -6 -4 -7 -10 -4 -5 3 -10 11 -10 16 0 6 5 7
10 4 6 -3 10 -11 10 -16z m111 -66 c19 -12 44 -32 55 -44 17 -19 14 -18 -21 4
-72 47 -85 57 -95 80 -11 22 -11 22 7 2 10 -11 34 -30 54 -42z"/>
<path d="M2265 3689 c-11 -17 1 -21 15 -4 8 9 8 15 2 15 -6 0 -14 -5 -17 -11z"/>
<path d="M2190 3392 c0 -12 19 -26 26 -19 2 2 -2 10 -11 17 -9 8 -15 8 -15 2z"/>
<path d="M2354 3469 c-3 -6 -2 -15 3 -20 5 -5 9 -1 9 11 0 23 -2 24 -12 9z"/>
<path d="M2162 3281 c-27 -23 -27 -27 -1 -42 20 -10 21 -9 17 15 -3 14 0 27 6
29 6 2 8 7 5 11 -3 3 -16 -2 -27 -13z"/>
<path d="M2262 1850 c0 -14 2 -19 5 -12 2 6 2 18 0 25 -3 6 -5 1 -5 -13z"/>
</g>
</svg>
